<svg width="250" height="174" viewBox="0 0 250 174" fill="none" xmlns="http://www.w3.org/2000/svg">
<path d="M101.65 74.3975C84.2175 56.9608 79.6579 31.5677 87.8842 9.92059C80.1143 12.873 72.8166 17.4286 66.5586 23.6866C42.8678 47.3773 42.8678 85.7944 66.5586 109.485C90.2533 133.18 128.67 133.18 152.357 109.485C158.619 103.227 163.175 95.9295 166.127 88.1595C144.48 96.3858 119.087 91.8302 101.65 74.3975Z" fill="#8B71B5"/>
<path d="M93.591 129.239C75.7892 129.239 59.0629 122.307 46.4794 109.727C20.5069 83.7507 20.5069 41.4844 46.4794 15.5079C53.1342 8.84913 61.0192 3.76178 69.8963 0.388724C72.0947 -0.444618 74.571 0.0871337 76.2218 1.74191C77.8805 3.40066 78.4123 5.87688 77.5789 8.06738C69.9241 28.1985 74.7932 51.0242 89.9878 66.2188C100.297 76.5284 114.012 82.2071 128.611 82.2071C135.318 82.2071 141.893 81.0047 148.139 78.6277C150.338 77.7983 152.81 78.3261 154.465 79.9848C156.123 81.6396 156.651 84.1158 155.818 86.3063C152.445 95.1834 147.357 103.064 140.699 109.723C128.115 122.307 111.385 129.239 93.591 129.239ZM62.8843 17.3373C60.0271 19.2619 57.3605 21.4644 54.8961 23.9287C33.5665 45.2622 33.5665 79.9729 54.8961 101.306C65.2296 111.644 78.9718 117.334 93.591 117.334C108.202 117.334 121.944 111.644 132.282 101.306C134.742 98.8461 136.941 96.1794 138.869 93.3302C135.488 93.8501 132.064 94.112 128.611 94.112C110.833 94.112 94.1307 87.1952 81.571 74.6356C66.4002 59.4687 59.6819 38.0598 62.8843 17.3373Z" fill="#212353"/>
<path d="M229.85 173.86C242.544 161.666 249.754 145.101 249.995 125.249C250.365 94.9552 230.686 67.8672 201.063 61.5084C175.712 56.0656 152.162 65.3786 137.769 82.8292C131.295 80.081 124.177 78.4589 116.704 78.4589C93.8295 78.4589 74.3255 92.6727 66.4781 112.768C56.562 110.524 45.2985 111.49 33.264 122.997C25.825 130.108 20.951 139.669 20.9929 149.96C21.0158 155.666 22.325 160.864 24.6418 165.586" fill="#53ECF4"/>
<path d="M214.582 164.318C213.078 164.318 211.578 163.727 210.456 162.555C208.265 160.276 208.338 156.654 210.617 154.463C222.43 143.116 228.789 127.711 229.002 109.913C229.35 81.4093 211.09 57.5275 184.594 51.8404C162.414 47.077 140.849 54.3137 126.917 71.207C125.307 73.1612 122.597 73.8215 120.261 72.8329C114.146 70.2337 107.81 68.9169 101.436 68.9169C81.44 68.9169 63.8177 80.9551 56.5466 99.5851C55.5161 102.222 52.726 103.711 49.9473 103.085C42.8709 101.482 33.2869 101.028 21.9547 111.868C15.1455 118.375 11.4164 126.471 11.4508 134.673C11.4661 139.276 12.5004 143.692 14.5157 147.795C15.9088 150.635 14.7371 154.066 11.8974 155.46C9.05764 156.853 5.62632 155.681 4.23317 152.841C1.45071 147.173 0.0270306 141.07 0.000312846 134.719C-0.0454891 123.345 4.93929 112.291 14.0386 103.593C24.3402 93.7453 35.4281 89.6346 47.7603 91.1003C57.6802 70.5199 78.2682 57.4664 101.436 57.4664C107.997 57.4664 114.509 58.5809 120.833 60.7832C137.391 43.0502 162.349 35.3517 186.998 40.6418C218.38 47.3823 240.865 76.5734 240.453 110.055C240.201 130.986 232.624 149.196 218.548 162.719C217.441 163.788 216.01 164.318 214.582 164.318Z" fill="#212353"/>
</svg>
