<svg width="878" height="614" viewBox="0 0 878 614" fill="none" xmlns="http://www.w3.org/2000/svg">
<path opacity="0.5" fill-rule="evenodd" clip-rule="evenodd" d="M867.392 613.448H0.586483C-10.3884 465.646 135.329 372.511 214.497 321.91C224.782 315.337 233.943 309.481 241.492 304.317C274.58 281.68 299.116 232.249 325.211 179.676C373.287 82.8198 426.654 -24.6977 548.543 5.03851C655.706 31.2502 816.764 142.78 877.317 309.629V586.745C874.313 595.577 871.008 604.479 867.392 613.448Z" fill="url(#paint0_linear)"/>
<path d="M788 424.4H288V424.65H788V424.4Z" fill="#EBEBEB"/>
<path d="M737.9 440.49H704.78V440.74H737.9V440.49Z" fill="#EBEBEB"/>
<path d="M619.22 443.21H610.53V443.46H619.22V443.21Z" fill="#EBEBEB"/>
<path d="M703.78 431.21H684.59V431.46H703.78V431.21Z" fill="#EBEBEB"/>
<path d="M383.65 432.89H340.46V433.14H383.65V432.89Z" fill="#EBEBEB"/>
<path d="M398.89 432.89H392.56V433.14H398.89V432.89Z" fill="#EBEBEB"/>
<path d="M513.15 437.11H419.47V437.36H513.15V437.11Z" fill="#EBEBEB"/>
<path d="M525 379.8H331.91C330.397 379.797 328.948 379.195 327.879 378.124C326.81 377.053 326.21 375.603 326.21 374.09V102.66C326.223 101.156 326.829 99.718 327.896 98.6582C328.964 97.5985 330.406 97.0026 331.91 97H525C526.514 97 527.967 97.6016 529.038 98.6724C530.108 99.7433 530.71 101.196 530.71 102.71V374.09C530.71 375.604 530.108 377.057 529.038 378.128C527.967 379.198 526.514 379.8 525 379.8ZM331.91 97.2C330.464 97.2026 329.077 97.7791 328.056 98.8027C327.034 99.8264 326.46 101.214 326.46 102.66V374.09C326.46 375.536 327.034 376.924 328.056 377.947C329.077 378.971 330.464 379.547 331.91 379.55H525C526.447 379.547 527.834 378.971 528.858 377.948C529.881 376.924 530.457 375.537 530.46 374.09V102.66C530.457 101.213 529.881 99.8255 528.858 98.8021C527.834 97.7787 526.447 97.2026 525 97.2H331.91Z" fill="#EBEBEB"/>
<path d="M741.31 379.8H548.21C546.696 379.797 545.246 379.195 544.175 378.125C543.105 377.054 542.503 375.604 542.5 374.09V102.66C542.516 101.155 543.124 99.7171 544.193 98.6576C545.262 97.5981 546.705 97.0025 548.21 97H741.31C742.812 97.0052 744.252 97.6022 745.317 98.6617C746.382 99.7212 746.987 101.158 747 102.66V374.09C747 375.601 746.401 377.05 745.335 378.121C744.268 379.191 742.821 379.795 741.31 379.8ZM548.21 97.2C546.763 97.2026 545.375 97.7787 544.352 98.8021C543.329 99.8255 542.753 101.213 542.75 102.66V374.09C542.753 375.537 543.329 376.924 544.352 377.948C545.375 378.971 546.763 379.547 548.21 379.55H741.31C742.757 379.547 744.145 378.971 745.168 377.948C746.191 376.924 746.767 375.537 746.77 374.09V102.66C746.767 101.213 746.191 99.8255 745.168 98.8021C744.145 97.7787 742.757 97.2026 741.31 97.2H548.21Z" fill="#EBEBEB"/>
<path d="M362.54 292.87H518.16V121.77L362.54 121.77V292.87Z" fill="#E6E6E6"/>
<path d="M357.46 292.87H515.79V121.77L357.46 121.77V292.87Z" fill="#F0F0F0"/>
<path d="M362.55 292.87H518.17V300.33H357.58L362.55 292.87Z" fill="#E6E6E6"/>
<path d="M349.01 292.87H507.33L502.36 300.33H344.03L349.01 292.87Z" fill="#F0F0F0"/>
<path d="M508.69 285.76V128.88H364.58V285.76H508.69Z" fill="#FAFAFA"/>
<path d="M484.41 285.76L428.75 128.89H409.05L464.71 285.76H484.41Z" fill="white"/>
<path d="M505.39 280.78C505.462 280.78 505.534 280.766 505.6 280.738C505.667 280.71 505.728 280.67 505.779 280.619C505.83 280.568 505.87 280.507 505.898 280.44C505.926 280.374 505.94 280.302 505.94 280.23V133.51C505.937 133.366 505.878 133.229 505.775 133.128C505.673 133.027 505.534 132.97 505.39 132.97C505.319 132.97 505.249 132.984 505.183 133.011C505.118 133.038 505.058 133.078 505.008 133.128C504.958 133.178 504.918 133.238 504.891 133.303C504.864 133.369 504.85 133.439 504.85 133.51V280.23C504.85 280.374 504.907 280.513 505.008 280.615C505.108 280.718 505.246 280.777 505.39 280.78Z" fill="#F0F0F0"/>
<path d="M442.48 285.76L386.82 128.89H379.14L434.8 285.76H442.48Z" fill="white"/>
<path d="M365.48 285.77V128.89H364.58V285.77H365.48Z" fill="#E6E6E6"/>
<path opacity="0.5" d="M355.78 142.61H511.41L512.06 131.65H356.44L355.78 142.61Z" fill="#E0E0E0"/>
<path opacity="0.5" d="M355.78 160.62H511.41L512.06 149.66H356.44L355.78 160.62Z" fill="#E0E0E0"/>
<path opacity="0.5" d="M355.78 178.63H511.41L512.06 167.68H356.44L355.78 178.63Z" fill="#E0E0E0"/>
<path opacity="0.5" d="M355.78 196.64H511.41L512.06 185.69H356.44L355.78 196.64Z" fill="#E0E0E0"/>
<path opacity="0.5" d="M355.78 214.66H511.41L512.06 203.7H356.44L355.78 214.66Z" fill="#E0E0E0"/>
<path opacity="0.5" d="M355.78 232.67H511.41L512.06 221.71H356.44L355.78 232.67Z" fill="#E0E0E0"/>
<path d="M712.68 145H589.37V200.25H712.68V145Z" fill="#F5F5F5"/>
<path d="M712.68 145H589.37V146.94H712.68V145Z" fill="#E0E0E0"/>
<path d="M712.68 198.31H589.37V200.25H712.68V198.31Z" fill="#E0E0E0"/>
<path d="M649.09 424.4L647.36 200.25H654.69L652.96 424.4H649.09Z" fill="#EBEBEB"/>
<path d="M596.64 424.4L662.47 200.25H669.81L600.51 424.4H596.64Z" fill="#EBEBEB"/>
<path d="M705.42 424.4L639.59 200.25H632.25L701.55 424.4H705.42Z" fill="#EBEBEB"/>
<path d="M369.23 428.23H376.32V334.45H369.23V428.23Z" fill="#E6E6E6"/>
<path d="M366.98 428.23H371.91V334.45H366.98V428.23Z" fill="#F0F0F0"/>
<path d="M522.21 330.08H365.38V343.15H522.21V330.08Z" fill="#F0F0F0"/>
<path d="M518.17 423.87H525.26V343.16H518.17V423.87Z" fill="#E6E6E6"/>
<path d="M515.93 423.87H520.86V343.16H515.93V423.87Z" fill="#F0F0F0"/>
<path d="M568.66 423.87H575.75V343.16H568.66V423.87Z" fill="#E6E6E6"/>
<path d="M566.42 423.87H571.35V343.16H566.42V423.87Z" fill="#F0F0F0"/>
<path d="M414.12 423.87H421.21V343.16H414.12V423.87Z" fill="#E6E6E6"/>
<path d="M411.87 423.87H416.8V343.16H411.87V423.87Z" fill="#F0F0F0"/>
<path d="M522.2 343.16H577.36V330.09H522.2V343.16Z" fill="#E6E6E6"/>
<path d="M489.18 320.32H421.21V330.08H489.18V320.32Z" fill="#EBEBEB"/>
<path d="M489.18 330.09H522.46V320.33H489.18V330.09Z" fill="#E0E0E0"/>
<path d="M497.78 325.21H513.86C514.622 325.21 515.24 324.592 515.24 323.83C515.24 323.068 514.622 322.45 513.86 322.45H497.78C497.018 322.45 496.4 323.068 496.4 323.83C496.4 324.592 497.018 325.21 497.78 325.21Z" fill="#F5F5F5"/>
<path d="M457.65 313.31H443.96V320.32H457.65V313.31Z" fill="#F5F5F5"/>
<path d="M451.3 310.38H450.31V313.31H451.3V310.38Z" fill="#E6E6E6"/>
<path d="M469.86 314.53H468.87V315.99H469.86V314.53Z" fill="#E6E6E6"/>
<path d="M477.7 315.99H461.03V320.32H477.7V315.99Z" fill="#F0F0F0"/>
<path d="M538 469.56C645.083 469.56 731.89 464.492 731.89 458.24C731.89 451.988 645.083 446.92 538 446.92C430.918 446.92 344.11 451.988 344.11 458.24C344.11 464.492 430.918 469.56 538 469.56Z" fill="#F5F5F5"/>
<path d="M516.68 133.54H509.68V134.54H516.68V133.54Z" fill="#9C69E2"/>
<path d="M503.22 133.54H469.19V134.54H503.22V133.54Z" fill="#9C69E2"/>
<path d="M689.46 273.56H375.1C371.992 273.49 369.014 272.3 366.714 270.209C364.413 268.118 362.945 265.267 362.58 262.18L351.13 148.42C350.946 146.977 351.075 145.512 351.507 144.124C351.94 142.735 352.665 141.456 353.636 140.373C354.606 139.29 355.798 138.428 357.131 137.846C358.464 137.264 359.906 136.975 361.36 137H675.72C678.828 137.072 681.806 138.262 684.108 140.352C686.41 142.443 687.88 145.293 688.25 148.38L699.69 262.14C699.875 263.583 699.748 265.049 699.316 266.438C698.884 267.827 698.159 269.107 697.188 270.191C696.217 271.274 695.025 272.136 693.691 272.717C692.358 273.299 690.914 273.586 689.46 273.56Z" fill="#9C69E2"/>
<path opacity="0.3" d="M420.11 265H382.3C379.351 264.93 376.526 263.799 374.342 261.816C372.158 259.833 370.762 257.129 370.41 254.2L360.57 156.35C360.399 154.983 360.524 153.596 360.936 152.282C361.349 150.968 362.039 149.758 362.959 148.733C363.88 147.709 365.01 146.895 366.273 146.346C367.536 145.796 368.903 145.525 370.28 145.55H408.09C411.048 145.612 413.884 146.743 416.074 148.734C418.263 150.725 419.658 153.441 420 156.38L429.85 254.23C430.016 255.597 429.887 256.984 429.471 258.296C429.055 259.609 428.362 260.817 427.438 261.838C426.514 262.859 425.382 263.67 424.118 264.216C422.853 264.761 421.487 265.029 420.11 265Z" fill="white"/>
<path d="M486.21 269H446.32C443.207 268.928 440.225 267.735 437.922 265.641C435.618 263.547 434.147 260.691 433.78 257.6L423.25 153C423.064 151.555 423.192 150.087 423.625 148.696C424.058 147.305 424.785 146.023 425.758 144.938C426.731 143.854 427.926 142.991 429.262 142.41C430.598 141.829 432.043 141.542 433.5 141.57H473.39C476.508 141.641 479.494 142.837 481.799 144.938C484.104 147.039 485.571 149.902 485.93 153L496.46 257.68C496.627 259.116 496.485 260.572 496.044 261.948C495.602 263.325 494.872 264.592 493.902 265.664C492.931 266.736 491.743 267.588 490.416 268.163C489.09 268.739 487.656 269.024 486.21 269Z" fill="white"/>
<path opacity="0.3" d="M549.43 265H511.62C508.671 264.932 505.846 263.802 503.664 261.818C501.481 259.834 500.088 257.129 499.74 254.2L489.89 156.35C489.719 154.983 489.844 153.596 490.256 152.282C490.669 150.968 491.359 149.758 492.279 148.733C493.2 147.709 494.33 146.895 495.593 146.346C496.856 145.796 498.223 145.525 499.6 145.55H537.41C540.359 145.62 543.184 146.751 545.368 148.734C547.551 150.717 548.947 153.421 549.3 156.35L559.14 254.2C559.311 255.567 559.186 256.954 558.773 258.268C558.361 259.582 557.671 260.792 556.75 261.817C555.83 262.841 554.699 263.655 553.436 264.204C552.173 264.754 550.807 265.025 549.43 265Z" fill="white"/>
<path opacity="0.2" d="M614.09 265H576.28C573.332 264.929 570.508 263.799 568.326 261.815C566.144 259.832 564.75 257.128 564.4 254.2L554.55 156.35C554.382 154.983 554.51 153.596 554.924 152.283C555.338 150.969 556.029 149.76 556.95 148.737C557.872 147.713 559.002 146.899 560.264 146.349C561.527 145.799 562.893 145.527 564.27 145.55H602.07C605.031 145.612 607.869 146.742 610.062 148.732C612.254 150.723 613.653 153.439 614 156.38L623.84 254.23C624.007 255.598 623.877 256.985 623.46 258.299C623.044 259.612 622.349 260.82 621.425 261.842C620.5 262.863 619.366 263.674 618.101 264.219C616.835 264.764 615.467 265.03 614.09 265Z" fill="white"/>
<path opacity="0.1" d="M678.75 265H640.94C637.992 264.929 635.168 263.799 632.986 261.815C630.804 259.832 629.41 257.128 629.06 254.2L619.21 156.35C619.042 154.983 619.17 153.596 619.584 152.283C619.998 150.969 620.689 149.76 621.611 148.737C622.532 147.713 623.662 146.899 624.924 146.349C626.187 145.799 627.553 145.527 628.93 145.55H666.73C669.679 145.62 672.504 146.751 674.688 148.734C676.871 150.717 678.267 153.421 678.62 156.35L688.46 254.2C688.631 255.567 688.506 256.954 688.093 258.268C687.681 259.582 686.991 260.792 686.07 261.817C685.15 262.841 684.019 263.655 682.756 264.204C681.493 264.754 680.127 265.025 678.75 265Z" fill="white"/>
<path d="M533.22 177.62C533.035 176.12 532.315 174.737 531.193 173.725C530.071 172.713 528.621 172.14 527.11 172.11C526.423 172.109 525.743 172.245 525.11 172.51C524.453 171.384 523.518 170.445 522.393 169.785C521.269 169.125 519.994 168.765 518.69 168.74C517.215 168.713 515.782 169.237 514.673 170.21C513.563 171.183 512.856 172.534 512.69 174C511.985 174.034 511.295 174.214 510.663 174.528C510.031 174.842 509.472 175.284 509.019 175.825C508.566 176.366 508.23 176.995 508.032 177.672C507.835 178.349 507.779 179.06 507.87 179.76C508.053 181.329 508.798 182.779 509.967 183.841C511.136 184.904 512.651 185.507 514.23 185.54H532.61C533.133 185.55 533.652 185.447 534.132 185.239C534.612 185.03 535.041 184.721 535.391 184.332C535.741 183.944 536.003 183.484 536.16 182.985C536.317 182.486 536.365 181.959 536.3 181.44C536.194 180.579 535.849 179.766 535.305 179.091C534.761 178.416 534.038 177.906 533.22 177.62Z" fill="white"/>
<path d="M469.51 167.88C469.292 166.131 468.451 164.518 467.142 163.338C465.833 162.157 464.142 161.487 462.38 161.45C461.563 161.447 460.754 161.607 460 161.92C459.233 160.607 458.141 159.512 456.83 158.742C455.518 157.971 454.031 157.551 452.51 157.52C450.789 157.491 449.119 158.104 447.825 159.239C446.531 160.374 445.706 161.95 445.51 163.66C444.688 163.704 443.884 163.918 443.148 164.286C442.412 164.654 441.76 165.17 441.232 165.801C440.704 166.433 440.312 167.166 440.079 167.955C439.846 168.744 439.779 169.573 439.88 170.39C440.092 172.223 440.962 173.918 442.329 175.159C443.695 176.4 445.464 177.104 447.31 177.14H468.78C469.39 177.152 469.996 177.032 470.556 176.79C471.116 176.547 471.617 176.187 472.026 175.734C472.434 175.28 472.741 174.744 472.924 174.162C473.108 173.58 473.164 172.966 473.09 172.36C472.966 171.355 472.566 170.404 471.934 169.613C471.302 168.822 470.463 168.222 469.51 167.88Z" fill="#9C69E2"/>
<path d="M450.55 187.55C450.328 187.55 450.115 187.468 449.95 187.32C449.862 187.242 449.791 187.147 449.74 187.042C449.689 186.936 449.659 186.822 449.653 186.705C449.646 186.587 449.663 186.47 449.702 186.36C449.741 186.249 449.801 186.147 449.88 186.06L455.46 179.86C455.621 179.7 455.838 179.608 456.065 179.602C456.293 179.597 456.514 179.679 456.683 179.831C456.851 179.983 456.956 180.194 456.974 180.421C456.992 180.648 456.923 180.873 456.78 181.05L451.21 187.25C451.128 187.344 451.026 187.419 450.912 187.471C450.798 187.523 450.675 187.55 450.55 187.55Z" fill="#9C69E2"/>
<path d="M456.87 187.55C456.648 187.55 456.435 187.468 456.27 187.32C456.182 187.242 456.111 187.147 456.06 187.042C456.009 186.936 455.979 186.822 455.973 186.705C455.966 186.587 455.983 186.47 456.022 186.36C456.061 186.249 456.121 186.147 456.2 186.06L461.78 179.86C461.941 179.7 462.158 179.608 462.385 179.602C462.613 179.597 462.834 179.679 463.002 179.831C463.171 179.983 463.276 180.194 463.294 180.421C463.312 180.648 463.242 180.873 463.1 181.05L457.53 187.25C457.447 187.344 457.346 187.419 457.232 187.471C457.118 187.523 456.995 187.55 456.87 187.55Z" fill="#9C69E2"/>
<path d="M444.23 187.55C444.008 187.55 443.795 187.468 443.63 187.32C443.542 187.242 443.471 187.147 443.42 187.042C443.369 186.936 443.339 186.822 443.333 186.705C443.326 186.587 443.343 186.47 443.382 186.36C443.421 186.249 443.481 186.147 443.56 186.06L449.14 179.86C449.301 179.7 449.518 179.608 449.745 179.602C449.973 179.597 450.194 179.679 450.362 179.831C450.531 179.983 450.636 180.194 450.654 180.421C450.672 180.648 450.602 180.873 450.46 181.05L444.89 187.25C444.807 187.344 444.706 187.419 444.592 187.471C444.478 187.523 444.355 187.55 444.23 187.55Z" fill="#9C69E2"/>
<g opacity="0.4">
<path opacity="0.4" d="M660.55 173.45C660.387 172.158 659.765 170.967 658.798 170.095C657.831 169.223 656.582 168.728 655.28 168.7C654.677 168.696 654.078 168.811 653.52 169.04C652.953 168.07 652.147 167.262 651.179 166.693C650.211 166.124 649.113 165.813 647.99 165.79C646.713 165.762 645.472 166.212 644.51 167.052C643.548 167.892 642.934 169.061 642.79 170.33C642.179 170.361 641.582 170.517 641.035 170.791C640.488 171.064 640.004 171.448 639.613 171.918C639.222 172.387 638.933 172.933 638.764 173.521C638.595 174.108 638.549 174.724 638.63 175.33C638.787 176.686 639.429 177.939 640.438 178.859C641.447 179.778 642.755 180.3 644.12 180.33H660C660.45 180.339 660.897 180.252 661.311 180.072C661.724 179.893 662.094 179.627 662.394 179.292C662.695 178.957 662.92 178.561 663.054 178.131C663.188 177.701 663.228 177.247 663.17 176.8C663.092 176.052 662.805 175.341 662.342 174.748C661.879 174.155 661.257 173.706 660.55 173.45Z" fill="white"/>
<path opacity="0.4" d="M646.54 188C646.377 188.002 646.219 187.941 646.1 187.83C645.97 187.713 645.892 187.55 645.883 187.375C645.874 187.201 645.934 187.03 646.05 186.9L650.05 182.5C650.108 182.434 650.178 182.381 650.256 182.342C650.335 182.304 650.42 182.281 650.507 182.275C650.595 182.27 650.682 182.281 650.765 182.31C650.848 182.338 650.924 182.382 650.99 182.44C651.056 182.498 651.109 182.568 651.148 182.646C651.186 182.725 651.209 182.81 651.215 182.898C651.22 182.985 651.208 183.072 651.18 183.155C651.152 183.238 651.108 183.314 651.05 183.38L647.05 187.78C646.987 187.853 646.908 187.91 646.82 187.948C646.732 187.986 646.636 188.004 646.54 188Z" fill="white"/>
<path opacity="0.4" d="M651.21 188C651.129 188.002 651.048 187.988 650.973 187.959C650.897 187.93 650.828 187.886 650.77 187.83C650.708 187.769 650.659 187.697 650.625 187.617C650.591 187.537 650.574 187.452 650.574 187.365C650.574 187.278 650.591 187.193 650.625 187.113C650.659 187.033 650.708 186.961 650.77 186.9L654.77 182.5C654.828 182.434 654.898 182.381 654.976 182.342C655.055 182.304 655.14 182.281 655.227 182.275C655.315 182.27 655.402 182.281 655.485 182.31C655.568 182.338 655.644 182.382 655.71 182.44C655.776 182.498 655.829 182.568 655.868 182.646C655.906 182.725 655.929 182.81 655.935 182.898C655.94 182.985 655.928 183.072 655.9 183.155C655.872 183.238 655.828 183.314 655.77 183.38L651.77 187.78C651.702 187.86 651.615 187.922 651.517 187.96C651.42 187.998 651.314 188.012 651.21 188Z" fill="white"/>
<path opacity="0.4" d="M641.87 188C641.707 188.001 641.55 187.941 641.43 187.83C641.3 187.713 641.222 187.55 641.213 187.375C641.203 187.201 641.264 187.03 641.38 186.9L645.38 182.5C645.497 182.37 645.66 182.292 645.835 182.283C646.009 182.274 646.18 182.334 646.31 182.45C646.375 182.507 646.428 182.577 646.466 182.655C646.504 182.733 646.526 182.818 646.531 182.904C646.536 182.991 646.523 183.078 646.494 183.16C646.464 183.241 646.419 183.316 646.36 183.38L642.36 187.78C642.299 187.85 642.224 187.906 642.139 187.944C642.054 187.982 641.963 188.001 641.87 188Z" fill="white"/>
</g>
<g opacity="0.7">
<path opacity="0.7" d="M591.52 178.29C591.602 178.931 591.545 179.583 591.352 180.2C591.16 180.817 590.837 181.385 590.405 181.866C589.974 182.348 589.443 182.73 588.85 182.988C588.258 183.245 587.616 183.372 586.97 183.36C585.586 183.331 584.259 182.801 583.235 181.869C582.211 180.937 581.559 179.665 581.4 178.29C581.318 177.649 581.375 176.998 581.567 176.382C581.76 175.765 582.083 175.197 582.515 174.717C582.947 174.236 583.477 173.855 584.07 173.598C584.663 173.342 585.304 173.216 585.95 173.23C587.333 173.259 588.658 173.787 589.682 174.717C590.706 175.647 591.358 176.916 591.52 178.29Z" fill="white"/>
<path opacity="0.7" d="M587.45 188.55C587.342 188.55 587.239 188.511 587.159 188.439C587.08 188.366 587.03 188.267 587.02 188.16L586.78 185.85C586.769 185.735 586.803 185.62 586.876 185.53C586.949 185.44 587.055 185.383 587.17 185.37C587.285 185.359 587.4 185.393 587.49 185.466C587.58 185.539 587.637 185.645 587.65 185.76L587.88 188.07C587.885 188.127 587.88 188.184 587.863 188.238C587.846 188.292 587.819 188.343 587.783 188.386C587.747 188.43 587.702 188.466 587.652 188.492C587.601 188.519 587.546 188.535 587.49 188.54L587.45 188.55Z" fill="white"/>
<path opacity="0.7" d="M585.7 171.22C585.592 171.218 585.488 171.176 585.408 171.102C585.329 171.028 585.28 170.928 585.27 170.82L585.04 168.52C585.029 168.405 585.063 168.29 585.136 168.2C585.209 168.11 585.315 168.053 585.43 168.04C585.486 168.034 585.543 168.04 585.598 168.057C585.652 168.074 585.702 168.101 585.746 168.137C585.79 168.173 585.826 168.218 585.852 168.268C585.879 168.318 585.895 168.373 585.9 168.43L586.14 170.74C586.145 170.797 586.14 170.854 586.123 170.908C586.106 170.962 586.079 171.013 586.043 171.056C586.007 171.1 585.962 171.136 585.912 171.162C585.861 171.189 585.806 171.205 585.75 171.21L585.7 171.22Z" fill="white"/>
<path opacity="0.7" d="M579 178.73H576.69C576.575 178.727 576.466 178.68 576.385 178.598C576.305 178.515 576.26 178.405 576.26 178.29C576.26 178.176 576.305 178.067 576.386 177.986C576.466 177.905 576.576 177.86 576.69 177.86H579C579.114 177.86 579.223 177.905 579.304 177.986C579.385 178.067 579.43 178.176 579.43 178.29C579.43 178.405 579.385 178.515 579.305 178.598C579.224 178.68 579.115 178.727 579 178.73Z" fill="white"/>
<path opacity="0.7" d="M596.28 178.73H594C593.885 178.727 593.775 178.68 593.695 178.598C593.615 178.515 593.57 178.405 593.57 178.29C593.57 178.176 593.615 178.067 593.696 177.986C593.776 177.905 593.886 177.86 594 177.86H596.31C596.424 177.86 596.533 177.905 596.614 177.986C596.695 178.067 596.74 178.176 596.74 178.29C596.74 178.349 596.728 178.408 596.705 178.463C596.681 178.518 596.647 178.567 596.604 178.608C596.561 178.65 596.51 178.682 596.454 178.702C596.399 178.723 596.339 178.733 596.28 178.73Z" fill="white"/>
<path opacity="0.7" d="M594.1 185.67C593.993 185.668 593.891 185.629 593.81 185.56L592.01 183.93C591.933 183.85 591.889 183.743 591.888 183.632C591.886 183.52 591.927 183.412 592.002 183.33C592.077 183.247 592.18 183.196 592.291 183.187C592.402 183.178 592.512 183.211 592.6 183.28L594.39 184.91C594.472 184.992 594.518 185.104 594.518 185.22C594.518 185.336 594.472 185.448 594.39 185.53C594.315 185.612 594.211 185.663 594.1 185.67Z" fill="white"/>
<path opacity="0.7" d="M580.61 173.42C580.502 173.417 580.399 173.374 580.32 173.3L578.53 171.67C578.488 171.632 578.454 171.586 578.43 171.535C578.405 171.483 578.391 171.428 578.389 171.371C578.386 171.315 578.394 171.258 578.413 171.205C578.432 171.151 578.462 171.102 578.5 171.06C578.538 171.018 578.584 170.984 578.635 170.96C578.687 170.935 578.742 170.921 578.799 170.919C578.855 170.916 578.912 170.924 578.965 170.943C579.019 170.962 579.068 170.992 579.11 171.03L580.91 172.66C580.974 172.72 581.018 172.798 581.037 172.884C581.057 172.97 581.049 173.06 581.017 173.142C580.985 173.223 580.929 173.294 580.856 173.343C580.784 173.393 580.698 173.42 580.61 173.42Z" fill="white"/>
<path opacity="0.7" d="M580.22 185.67C580.113 185.67 580.01 185.631 579.93 185.56C579.89 185.52 579.858 185.473 579.836 185.42C579.814 185.368 579.803 185.312 579.803 185.255C579.803 185.198 579.814 185.142 579.836 185.09C579.858 185.037 579.89 184.99 579.93 184.95L581.4 183.32C581.44 183.28 581.487 183.248 581.54 183.226C581.592 183.204 581.648 183.193 581.705 183.193C581.762 183.193 581.818 183.204 581.87 183.226C581.922 183.248 581.97 183.28 582.01 183.32C582.092 183.402 582.138 183.514 582.138 183.63C582.138 183.746 582.092 183.858 582.01 183.94L580.54 185.57C580.45 185.643 580.335 185.679 580.22 185.67Z" fill="white"/>
<path opacity="0.7" d="M591.24 173.42C591.186 173.421 591.132 173.41 591.083 173.39C591.033 173.369 590.988 173.338 590.95 173.3C590.91 173.26 590.878 173.212 590.856 173.16C590.834 173.108 590.823 173.052 590.823 172.995C590.823 172.938 590.834 172.882 590.856 172.83C590.878 172.777 590.91 172.73 590.95 172.69L592.42 171.06C592.501 170.992 592.604 170.955 592.71 170.956C592.816 170.958 592.917 170.998 592.996 171.068C593.075 171.139 593.126 171.235 593.14 171.34C593.153 171.445 593.129 171.552 593.07 171.64L591.6 173.27C591.556 173.322 591.501 173.363 591.438 173.389C591.376 173.415 591.308 173.426 591.24 173.42Z" fill="white"/>
</g>
<path d="M402.29 177C402.131 175.724 401.519 174.547 400.564 173.686C399.609 172.825 398.376 172.336 397.09 172.31C396.496 172.31 395.907 172.429 395.36 172.66C394.802 171.701 394.007 170.902 393.05 170.34C392.094 169.778 391.009 169.471 389.9 169.45C388.638 169.41 387.409 169.849 386.457 170.678C385.506 171.507 384.903 172.665 384.77 173.92C384.17 173.951 383.582 174.106 383.045 174.374C382.507 174.642 382.03 175.018 381.645 175.479C381.259 175.94 380.972 176.475 380.803 177.052C380.633 177.628 380.585 178.234 380.66 178.83C380.817 180.166 381.452 181.401 382.448 182.305C383.444 183.21 384.735 183.723 386.08 183.75H401.73C402.175 183.759 402.617 183.672 403.026 183.495C403.435 183.318 403.801 183.055 404.099 182.724C404.397 182.393 404.62 182.001 404.753 181.576C404.886 181.151 404.926 180.702 404.87 180.26C404.78 179.532 404.492 178.843 404.037 178.268C403.582 177.694 402.977 177.255 402.29 177Z" fill="white"/>
<path d="M386.7 168.61C385.915 168.997 385.221 169.546 384.663 170.219C384.104 170.893 383.695 171.677 383.46 172.52C382.403 172.764 381.442 173.318 380.7 174.11C379.751 173.334 379.141 172.218 379 171C378.931 170.454 378.98 169.9 379.145 169.374C379.309 168.849 379.585 168.366 379.953 167.957C380.321 167.548 380.773 167.223 381.278 167.004C381.783 166.786 382.33 166.678 382.88 166.69C383.621 166.695 384.352 166.87 385.014 167.203C385.677 167.536 386.254 168.018 386.7 168.61Z" fill="white"/>
<path d="M382.7 165C382.608 165.001 382.52 164.967 382.451 164.906C382.383 164.845 382.34 164.761 382.33 164.67L382.14 162.67C382.134 162.622 382.139 162.573 382.152 162.527C382.166 162.48 382.189 162.437 382.22 162.4C382.251 162.362 382.289 162.332 382.332 162.309C382.375 162.287 382.422 162.274 382.47 162.27C382.518 162.264 382.567 162.269 382.613 162.282C382.66 162.296 382.703 162.319 382.74 162.35C382.777 162.381 382.808 162.419 382.83 162.462C382.853 162.505 382.866 162.552 382.87 162.6L383.07 164.6C383.075 164.649 383.071 164.698 383.058 164.745C383.044 164.792 383.021 164.836 382.991 164.874C382.96 164.912 382.922 164.944 382.879 164.967C382.836 164.99 382.789 165.005 382.74 165.01L382.7 165Z" fill="white"/>
<path d="M377 171.36H375C374.951 171.36 374.903 171.35 374.858 171.332C374.813 171.313 374.773 171.286 374.738 171.252C374.704 171.217 374.677 171.176 374.658 171.132C374.639 171.087 374.63 171.039 374.63 170.99C374.629 170.941 374.637 170.892 374.655 170.847C374.673 170.801 374.701 170.76 374.735 170.725C374.77 170.691 374.811 170.663 374.857 170.645C374.902 170.627 374.951 170.619 375 170.62H377C377.098 170.62 377.192 170.659 377.262 170.728C377.331 170.798 377.37 170.892 377.37 170.99C377.367 171.087 377.328 171.18 377.259 171.249C377.19 171.318 377.097 171.357 377 171.36Z" fill="white"/>
<path d="M378.37 166.83C378.278 166.831 378.19 166.799 378.12 166.74L376.59 165.35C376.517 165.284 376.473 165.191 376.469 165.093C376.464 164.994 376.499 164.898 376.565 164.825C376.631 164.752 376.724 164.708 376.822 164.704C376.921 164.699 377.017 164.734 377.09 164.8L378.62 166.19C378.688 166.259 378.727 166.353 378.727 166.45C378.727 166.547 378.688 166.641 378.62 166.71C378.588 166.745 378.55 166.774 378.507 166.795C378.464 166.816 378.417 166.827 378.37 166.83Z" fill="white"/>
<path d="M378 177.27C377.954 177.271 377.908 177.262 377.865 177.245C377.822 177.228 377.783 177.202 377.75 177.17C377.682 177.101 377.643 177.007 377.643 176.91C377.643 176.813 377.682 176.719 377.75 176.65L379 175.26C379.072 175.193 379.167 175.156 379.265 175.156C379.363 175.156 379.458 175.193 379.53 175.26C379.599 175.331 379.638 175.426 379.638 175.525C379.638 175.624 379.599 175.719 379.53 175.79L378.28 177.18C378.242 177.214 378.198 177.239 378.15 177.255C378.101 177.27 378.05 177.276 378 177.27Z" fill="white"/>
<path d="M387.41 166.83C387.338 166.832 387.268 166.813 387.207 166.775C387.146 166.737 387.098 166.681 387.07 166.616C387.041 166.55 387.032 166.478 387.044 166.407C387.057 166.337 387.09 166.271 387.14 166.22L388.39 164.83C388.459 164.762 388.552 164.723 388.65 164.723C388.747 164.723 388.841 164.762 388.91 164.83C388.976 164.9 389.013 164.993 389.013 165.09C389.013 165.187 388.976 165.28 388.91 165.35L387.66 166.74C387.59 166.798 387.501 166.83 387.41 166.83Z" fill="white"/>
<path d="M418.54 244.71H379.78C379.264 244.697 378.77 244.499 378.388 244.152C378.006 243.805 377.762 243.332 377.7 242.82L377.31 238.93C377.281 238.691 377.304 238.45 377.377 238.221C377.45 237.992 377.571 237.781 377.732 237.603C377.893 237.425 378.09 237.283 378.311 237.188C378.531 237.092 378.77 237.045 379.01 237.05H417.77C418.283 237.063 418.774 237.26 419.154 237.605C419.534 237.95 419.778 238.42 419.84 238.93L420.23 242.82C420.26 243.058 420.238 243.301 420.167 243.53C420.095 243.759 419.976 243.971 419.815 244.15C419.655 244.329 419.458 244.472 419.238 244.568C419.018 244.665 418.78 244.713 418.54 244.71Z" fill="white"/>
<path d="M485.26 246.42H442.72C442.154 246.407 441.612 246.191 441.194 245.81C440.775 245.43 440.507 244.912 440.44 244.35L440.01 240.08C439.977 239.818 440 239.552 440.079 239.3C440.158 239.048 440.29 238.816 440.467 238.62C440.643 238.423 440.86 238.267 441.102 238.162C441.344 238.057 441.606 238.005 441.87 238.01H484.42C484.985 238.023 485.527 238.239 485.946 238.619C486.365 239 486.633 239.518 486.7 240.08L487.13 244.35C487.161 244.612 487.136 244.879 487.056 245.13C486.976 245.382 486.843 245.614 486.666 245.81C486.489 246.007 486.271 246.162 486.029 246.268C485.786 246.373 485.524 246.425 485.26 246.42Z" fill="#9C69E2"/>
<path d="M547.86 244.71H509.1C508.585 244.697 508.093 244.498 507.712 244.151C507.332 243.804 507.09 243.331 507.03 242.82L506.64 238.93C506.61 238.692 506.631 238.45 506.703 238.221C506.774 237.992 506.894 237.782 507.055 237.603C507.215 237.425 507.412 237.283 507.632 237.188C507.852 237.092 508.09 237.045 508.33 237.05H547.09C547.604 237.061 548.096 237.257 548.477 237.603C548.857 237.948 549.1 238.42 549.16 238.93L549.56 242.82C549.588 243.059 549.566 243.301 549.493 243.531C549.42 243.76 549.299 243.971 549.138 244.15C548.977 244.329 548.78 244.472 548.56 244.568C548.339 244.665 548.101 244.713 547.86 244.71Z" fill="white"/>
<path opacity="0.7" d="M612.52 244.71H573.76C573.245 244.697 572.753 244.498 572.372 244.151C571.992 243.804 571.75 243.331 571.69 242.82L571.3 238.93C571.27 238.692 571.291 238.45 571.363 238.221C571.434 237.992 571.554 237.782 571.715 237.603C571.875 237.425 572.072 237.283 572.292 237.188C572.512 237.092 572.75 237.045 572.99 237.05H611.75C612.264 237.061 612.756 237.257 613.137 237.603C613.517 237.948 613.76 238.42 613.82 238.93L614.22 242.82C614.248 243.059 614.226 243.301 614.153 243.531C614.08 243.76 613.959 243.971 613.798 244.15C613.637 244.329 613.44 244.472 613.22 244.568C612.999 244.665 612.761 244.713 612.52 244.71Z" fill="white"/>
<path opacity="0.4" d="M677.18 244.71H638.43C637.913 244.699 637.418 244.502 637.036 244.154C636.654 243.807 636.41 243.333 636.35 242.82L635.96 238.93C635.93 238.692 635.951 238.45 636.023 238.221C636.094 237.992 636.214 237.782 636.375 237.603C636.535 237.425 636.732 237.283 636.952 237.188C637.172 237.092 637.41 237.045 637.65 237.05H676.41C676.924 237.063 677.417 237.259 677.798 237.604C678.18 237.949 678.425 238.42 678.49 238.93L678.88 242.82C678.908 243.059 678.885 243.301 678.813 243.531C678.74 243.76 678.619 243.971 678.458 244.15C678.297 244.329 678.1 244.472 677.88 244.568C677.659 244.665 677.42 244.713 677.18 244.71Z" fill="white"/>
<path d="M656 209.63C658.8 214.28 661.33 218.92 663.74 223.73C666.181 228.58 668.355 233.561 670.25 238.65C670.49 239.3 670.72 239.96 670.93 240.65L671.26 241.65L671.43 242.15L671.55 242.55C671.55 242.72 671.64 242.89 671.68 243.06C672.099 245.217 671.905 247.448 671.12 249.5C670.012 252.4 668.441 255.102 666.47 257.5C663.016 261.793 659.057 265.654 654.68 269L650.91 265.1C654.021 261.136 656.887 256.985 659.49 252.67C660.078 251.662 660.612 250.624 661.09 249.56C661.52 248.65 661.855 247.699 662.09 246.72C662.28 245.9 662.19 245.25 662.09 245.39V245.32L661.91 244.9L661.57 244.05C661.34 243.49 661.1 242.92 660.84 242.35C658.84 237.8 656.48 233.23 654.06 228.7C651.64 224.17 649.06 219.61 646.6 215.18L656 209.63Z" fill="#FF8B7B"/>
<path d="M652.34 263.35L646.65 268.35L654.57 273.35C654.57 273.35 656.9 269.57 656.8 266.07L652.34 263.35Z" fill="#FF8B7B"/>
<path d="M644.57 275.83L650.63 279.73L654.57 273.38L646.65 268.38L644.57 275.83Z" fill="#FF8B7B"/>
<path d="M622.69 177.09C622.58 177.66 622.18 178.09 621.81 178C621.44 177.91 621.22 177.4 621.33 176.83C621.44 176.26 621.84 175.83 622.21 175.92C622.58 176.01 622.8 176.52 622.69 177.09Z" fill="#263238"/>
<path d="M622.24 178.08C621.218 179.698 619.976 181.165 618.55 182.44C618.886 182.798 619.297 183.077 619.753 183.259C620.209 183.44 620.7 183.519 621.19 183.49L622.24 178.08Z" fill="#FF5652"/>
<path d="M625.4 174.32C625.485 174.321 625.568 174.289 625.63 174.23C625.694 174.165 625.73 174.077 625.73 173.985C625.73 173.893 625.694 173.805 625.63 173.74C625.267 173.333 624.811 173.02 624.301 172.828C623.79 172.636 623.241 172.572 622.7 172.64C622.656 172.647 622.614 172.663 622.577 172.687C622.54 172.71 622.507 172.741 622.482 172.778C622.457 172.814 622.439 172.855 622.43 172.899C622.421 172.942 622.421 172.987 622.43 173.03C622.445 173.119 622.494 173.198 622.567 173.251C622.64 173.303 622.731 173.324 622.82 173.31C623.249 173.266 623.682 173.325 624.083 173.482C624.485 173.638 624.844 173.888 625.13 174.21C625.165 174.246 625.207 174.275 625.253 174.294C625.3 174.312 625.35 174.322 625.4 174.32Z" fill="#263238"/>
<path d="M636.4 184C635.4 189.29 634.33 199 638.03 202.51C638.03 202.51 636.58 207.87 626.76 207.87C615.95 207.87 622.01 203.33 622.01 203.33C626.59 199.33 627.74 195.19 626.72 191.09L636.4 184Z" fill="#FF8B7B"/>
<path d="M639.24 204.11C639.79 202.11 640.39 199.85 638.65 199.32C636.74 198.74 626.58 198.92 623.23 200.67C619.88 202.42 621.23 206.22 621.23 206.22L639.24 204.11Z" fill="#263238"/>
<path d="M674.32 447.69C674.028 447.795 673.719 447.84 673.41 447.823C673.1 447.806 672.798 447.726 672.52 447.59C672.414 447.489 672.342 447.358 672.313 447.215C672.285 447.072 672.301 446.924 672.36 446.79C672.392 446.679 672.448 446.577 672.524 446.491C672.6 446.404 672.694 446.336 672.8 446.29C673.8 445.82 676.02 446.74 676.11 446.78C676.14 446.793 676.165 446.815 676.183 446.843C676.201 446.87 676.21 446.902 676.21 446.935C676.21 446.968 676.201 447 676.183 447.027C676.165 447.055 676.14 447.077 676.11 447.09C675.536 447.353 674.936 447.554 674.32 447.69ZM673.14 446.53L672.94 446.6C672.878 446.627 672.823 446.667 672.778 446.717C672.734 446.767 672.7 446.826 672.68 446.89C672.59 447.2 672.68 447.3 672.74 447.33C673.13 447.66 674.58 447.33 675.59 446.95C674.816 446.626 673.978 446.482 673.14 446.53Z" fill="#9C69E2"/>
<path d="M676.08 447.1H676C675.18 446.86 673.43 445.62 673.41 444.8C673.409 444.672 673.453 444.547 673.533 444.447C673.613 444.347 673.725 444.277 673.85 444.25C673.974 444.205 674.105 444.187 674.236 444.198C674.368 444.208 674.495 444.246 674.61 444.31C675.61 444.8 676.18 446.8 676.21 446.89C676.217 446.912 676.22 446.936 676.217 446.96C676.215 446.983 676.207 447.006 676.194 447.026C676.182 447.046 676.165 447.063 676.146 447.076C676.126 447.088 676.103 447.097 676.08 447.1ZM674.08 444.55H674C673.79 444.62 673.79 444.73 673.79 444.77C673.79 445.26 674.96 446.23 675.79 446.63C675.553 445.85 675.094 445.155 674.47 444.63C674.401 444.585 674.324 444.555 674.243 444.541C674.162 444.528 674.08 444.53 674 444.55H674.08Z" fill="#9C69E2"/>
<path d="M621 451.23C620.07 451.23 619.18 451.1 618.88 450.68C618.802 450.572 618.76 450.443 618.76 450.31C618.76 450.177 618.802 450.048 618.88 449.94C618.937 449.839 619.015 449.752 619.108 449.683C619.201 449.614 619.307 449.565 619.42 449.54C620.63 449.21 623.15 450.65 623.26 450.71C623.289 450.729 623.312 450.756 623.327 450.788C623.341 450.82 623.345 450.855 623.34 450.89C623.335 450.924 623.32 450.955 623.296 450.98C623.273 451.005 623.243 451.022 623.21 451.03C622.48 451.16 621.741 451.226 621 451.23ZM619.85 449.83C619.74 449.814 619.629 449.814 619.52 449.83C619.45 449.843 619.385 449.871 619.327 449.912C619.27 449.954 619.223 450.008 619.19 450.07C619.07 450.28 619.11 450.38 619.19 450.44C619.53 450.91 621.36 450.92 622.7 450.73C621.826 450.252 620.869 449.947 619.88 449.83H619.85Z" fill="#9C69E2"/>
<path d="M623.21 451H623.14C622.27 450.61 620.54 449.05 620.67 448.23C620.67 448.04 620.84 447.8 621.31 447.75C621.48 447.734 621.652 447.752 621.815 447.804C621.978 447.855 622.13 447.939 622.26 448.05C622.92 448.833 623.313 449.807 623.38 450.83C623.384 450.86 623.379 450.891 623.367 450.92C623.355 450.948 623.335 450.972 623.31 450.99C623.278 451.003 623.243 451.007 623.21 451ZM621.45 448.07H621.35C621.04 448.07 621.02 448.23 621.01 448.27C620.93 448.76 622.11 449.99 623.01 450.52C622.917 449.69 622.568 448.911 622.01 448.29C621.851 448.164 621.653 448.097 621.45 448.1V448.07Z" fill="#9C69E2"/>
<path d="M631.16 450.86H623.93L623.21 434.12H630.44L631.16 450.86Z" fill="#FF8B7B"/>
<path d="M684.14 445.18L677.07 446.71L669.98 431.12L677.05 429.59L684.14 445.18Z" fill="#FF8B7B"/>
<path d="M676.4 446L684.33 444.29C684.47 444.258 684.618 444.276 684.747 444.34C684.876 444.403 684.979 444.509 685.04 444.64L687.79 450.64C687.856 450.786 687.889 450.944 687.885 451.105C687.881 451.265 687.842 451.422 687.768 451.564C687.695 451.707 687.591 451.83 687.463 451.927C687.335 452.023 687.187 452.089 687.03 452.12C684.25 452.67 682.87 452.8 679.38 453.55C677.23 454.02 672.38 455.2 669.38 455.84C666.38 456.48 665.38 453.63 666.55 453.11C671.73 450.74 673.9 448.65 675.3 446.71C675.566 446.345 675.958 446.092 676.4 446Z" fill="#263238"/>
<path d="M624 450H631.89C632.034 449.999 632.174 450.047 632.286 450.136C632.399 450.225 632.478 450.35 632.51 450.49L633.94 456.92C633.976 457.072 633.977 457.231 633.944 457.383C633.91 457.536 633.843 457.68 633.748 457.803C633.652 457.927 633.53 458.028 633.39 458.098C633.25 458.168 633.096 458.207 632.94 458.21C630.09 458.16 625.94 457.99 622.4 457.99C618.21 457.99 618.28 458.22 613.4 458.22C610.4 458.22 609.61 455.22 610.85 454.95C616.5 453.71 617.43 453.58 622.32 450.56C622.821 450.229 623.4 450.035 624 450Z" fill="#263238"/>
<path d="M616.56 217.73C613.8 222.84 610.9 227.73 607.79 232.57C604.67 237.494 601.274 242.238 597.62 246.78C597.16 247.36 596.62 247.93 596.14 248.5L595.39 249.37L594.5 250.28C593.91 250.88 593.37 251.36 592.79 251.89L591.11 253.35C588.87 255.24 586.61 257 584.33 258.73C579.76 262.18 575.09 265.42 570.26 268.49L566.85 264.26C570.79 260.26 574.85 256.26 578.85 252.33C580.85 250.33 582.85 248.41 584.73 246.46C585.66 245.46 586.6 244.46 587.38 243.59L587.92 242.94L588.51 242.17C588.9 241.64 589.3 241.17 589.68 240.59C592.79 236.25 595.68 231.54 598.58 226.8C601.48 222.06 604.27 217.22 607 212.45L616.56 217.73Z" fill="#FF8B7B"/>
<path d="M653.2 204.15C660 205.71 667.94 230 667.94 230L656.35 237.58C656.35 237.58 648.98 226.26 645.15 218.19C641.13 209.77 646.27 202.57 653.2 204.15Z" fill="#9C69E2"/>
<g opacity="0.7">
<path opacity="0.7" d="M653.2 204.15C660 205.71 667.94 230 667.94 230L656.35 237.58C656.35 237.58 648.98 226.26 645.15 218.19C641.13 209.77 646.27 202.57 653.2 204.15Z" fill="white"/>
</g>
<path opacity="0.5" d="M649.35 216.62C648.76 215.85 647.15 217.62 645.94 219.85C647.62 223.17 649.74 226.85 651.62 229.99C652.79 223.92 650.88 218.57 649.35 216.62Z" fill="#9C69E2"/>
<path d="M612.7 204.53C612.7 204.53 605.01 213.22 612.27 267H650.93C651.2 261.07 647.47 232.12 653.2 204.15C648.923 203.326 644.597 202.782 640.25 202.52C634.778 202.2 629.292 202.2 623.82 202.52C620.066 202.898 616.348 203.57 612.7 204.53Z" fill="#9C69E2"/>
<path opacity="0.7" d="M612.7 204.53C612.7 204.53 605.01 213.22 612.27 267H650.93C651.2 261.07 647.47 232.12 653.2 204.15C648.923 203.326 644.597 202.782 640.25 202.52C634.778 202.2 629.292 202.2 623.82 202.52C620.066 202.898 616.348 203.57 612.7 204.53Z" fill="white"/>
<path opacity="0.5" d="M609.43 219.32C609.032 225.747 609.032 232.193 609.43 238.62C614.35 235.46 618.87 227.05 618.43 221.49L609.43 219.32Z" fill="#9C69E2"/>
<path d="M465.98 205.59L464.81 207.49L455.59 201.08L456.19 200.12L465.98 205.59Z" fill="#9C69E2"/>
<path d="M466.29 205.1L464.5 207.98L554.96 269.85L561.97 258.53L466.29 205.1Z" fill="#263238"/>
<path opacity="0.2" d="M465.96 205.64L464.84 207.44L556.26 267.74L560.66 260.64L465.96 205.64Z" fill="white"/>
<path d="M465.58 206.24L465.21 206.84L557.73 265.37L559.19 263L465.58 206.24Z" fill="#263238"/>
<path d="M563.35 280.21C562.365 280.211 561.399 279.937 560.56 279.42L561.21 278.42C561.717 278.727 562.283 278.922 562.871 278.992C563.459 279.063 564.055 279.008 564.62 278.83C565.856 278.439 566.912 277.62 567.598 276.52C568.283 275.42 568.554 274.112 568.36 272.83C568.267 272.246 568.05 271.689 567.724 271.196C567.398 270.702 566.97 270.285 566.47 269.97L558.14 264.8L558.79 263.75L567.12 268.92C567.768 269.325 568.323 269.864 568.747 270.5C569.171 271.136 569.455 271.856 569.58 272.61C569.822 274.185 569.494 275.796 568.654 277.15C567.814 278.505 566.518 279.516 565 280C564.463 280.151 563.907 280.222 563.35 280.21Z" fill="#263238"/>
<path d="M623.3 209.33C627.1 218.54 604.1 241.54 604.1 241.54L592.2 232.54C592.2 232.54 600.43 220.48 603.82 212.2C608 202 620.4 202.32 623.3 209.33Z" fill="#9C69E2"/>
<path opacity="0.7" d="M623.3 209.33C627.1 218.54 604.1 241.54 604.1 241.54L592.2 232.54C592.2 232.54 600.43 220.48 603.82 212.2C608 202 620.4 202.32 623.3 209.33Z" fill="white"/>
<path d="M596 229.2C598.51 231.65 604.09 236.97 606.65 238.49C606.832 238.602 606.964 238.779 607.022 238.984C607.079 239.19 607.057 239.41 606.96 239.6C606.11 241.19 604.18 243.52 602.9 243.71C601.39 243.94 589.73 236.24 589.52 234.66C589.39 233.59 591.85 230.86 593.44 229.23C593.605 229.059 593.803 228.922 594.022 228.828C594.24 228.733 594.475 228.683 594.714 228.68C594.952 228.678 595.188 228.722 595.409 228.811C595.63 228.901 595.83 229.033 596 229.2Z" fill="#263238"/>
<path d="M654.09 232.59C657.22 231.02 664.09 227.48 666.34 225.59C666.506 225.454 666.717 225.387 666.931 225.402C667.145 225.416 667.345 225.512 667.49 225.67C668.72 226.99 670.29 229.57 670.06 230.84C669.78 232.35 658.69 240.84 657.14 240.54C656.08 240.32 654.31 237.1 653.28 235.07C653.167 234.855 653.098 234.619 653.078 234.376C653.057 234.134 653.086 233.89 653.161 233.659C653.237 233.428 653.358 233.214 653.517 233.03C653.677 232.847 653.871 232.697 654.09 232.59Z" fill="#263238"/>
<path d="M569.21 262.59L561.93 264.87L565.23 272.05C565.23 272.05 571.56 271.21 572.81 266.05L569.21 262.59Z" fill="#FF8B7B"/>
<path d="M558.62 268.69L561.27 273.44L565.23 272.05L561.93 264.87L558.62 268.69Z" fill="#FF8B7B"/>
<path opacity="0.2" d="M623.21 434.12L623.58 442.75H630.82L630.45 434.12H623.21Z" fill="black"/>
<path opacity="0.2" d="M677.05 429.6L669.98 431.13L673.64 439.16L680.71 437.63L677.05 429.6Z" fill="black"/>
<path d="M642 179.57C640.21 186.57 639.51 190.68 635.27 193.57C628.87 197.96 620.82 193.06 620.5 185.72C620.22 179.11 623.2 168.86 630.62 167.4C632.258 167.064 633.954 167.154 635.547 167.662C637.14 168.169 638.576 169.077 639.718 170.298C640.86 171.519 641.669 173.013 642.069 174.636C642.468 176.26 642.445 177.958 642 179.57Z" fill="#FF8B7B"/>
<path d="M625.74 181.24C625.169 180.111 624.977 178.828 625.193 177.581C625.409 176.334 626.022 175.191 626.94 174.32C624.72 173.17 622.67 169.22 624.81 166.94C619.06 165.61 622.24 159.64 631.17 160.22C640.1 160.8 633.11 164.57 633.11 164.57C633.11 164.57 652.33 166.06 645.39 173.06C648.44 174.89 648.72 181.06 644.39 184.01C637.39 188.81 639.56 194.17 634.23 193.21C629.37 192.33 625.17 186.89 625.74 181.24Z" fill="#263238"/>
<path d="M628.48 180.2C628.346 181.003 628.042 181.768 627.588 182.444C627.135 183.12 626.542 183.691 625.85 184.12C624.06 185.12 623 184.36 622.97 182.5C622.97 180.83 623.72 178.12 625.48 177.5C627.24 176.88 628.71 178.34 628.48 180.2Z" fill="#FF8B7B"/>
<path d="M626 267C626 267 634.2 322.24 638.7 342.93C643.64 365.59 670.01 438.24 670.01 438.24L682.94 435.44C682.94 435.44 663.2 367.44 660.39 344.99C657.33 320.63 650.94 266.99 650.94 266.99L626 267Z" fill="#263238"/>
<path d="M666.54 432.44C666.48 432.44 669.31 438.6 669.31 438.6L683.87 435.45L682.28 429.59L666.54 432.44Z" fill="#9C69E2"/>
<path opacity="0.7" d="M666.54 432.44C666.48 432.44 669.31 438.6 669.31 438.6L683.87 435.45L682.28 429.59L666.54 432.44Z" fill="white"/>
<path opacity="0.3" d="M631.17 286.68C640.66 288.54 639.65 323.91 638.51 342.1C635.78 329.24 631.77 304.5 629.04 286.94C629.698 286.609 630.451 286.517 631.17 286.68Z" fill="black"/>
<path d="M612.27 267C612.27 267 611.27 321 612.07 343.08C612.88 366.01 620.89 441.08 620.89 441.08H633.14C633.14 441.08 633.59 367.35 634.14 344.83C634.73 320.29 637.7 267 637.7 267H612.27Z" fill="#263238"/>
<path d="M618.53 434.71L619.23 441.29H634.12L634.52 435.29L618.53 434.71Z" fill="#9C69E2"/>
<path opacity="0.7" d="M618.53 434.71L619.23 441.29H634.12L634.52 435.29L618.53 434.71Z" fill="white"/>
<defs>
<linearGradient id="paint0_linear" x1="368.817" y1="106.948" x2="867.317" y2="605.448" gradientUnits="userSpaceOnUse">
<stop stop-color="#CCDDFF"/>
<stop offset="1" stop-color="white" stop-opacity="0"/>
</linearGradient>
</defs>
</svg>
